<svg width="1200" height="720" viewBox="0 0 1200 720" fill="none" xmlns="http://www.w3.org/2000/svg">
  <rect width="1200" height="720" rx="36" fill="#FFFBF0"/>
  <rect x="42" y="42" width="1116" height="636" rx="32" fill="#FFF1C9"/>
  <circle cx="959" cy="146" r="110" fill="#F4D97B"/>
  <circle cx="251" cy="112" r="84" fill="#F9E9B6"/>
  <rect x="130" y="156" width="940" height="428" rx="34" fill="#FFFDF8"/>
  <rect x="184" y="204" width="428" height="316" rx="28" fill="#FFF5DA" stroke="#E8D39A" stroke-width="6"/>
  <rect x="642" y="204" width="376" height="316" rx="28" fill="#FFFFFF" stroke="#E8D39A" stroke-width="6"/>
  <circle cx="298" cy="318" r="64" fill="#D4AF37"/>
  <rect x="258" y="388" width="82" height="112" rx="28" fill="#E4C456"/>
  <rect x="224" y="424" width="42" height="96" rx="20" fill="#B88E1B"/>
  <rect x="334" y="424" width="42" height="96" rx="20" fill="#B88E1B"/>
  <circle cx="842" cy="302" r="60" fill="#E7CFAB"/>
  <rect x="800" y="366" width="84" height="126" rx="28" fill="#FFF0D3"/>
  <rect x="770" y="404" width="34" height="96" rx="17" fill="#D3BF9C"/>
  <rect x="880" y="404" width="34" height="96" rx="17" fill="#D3BF9C"/>
  <rect x="438" y="270" width="148" height="92" rx="20" fill="#FFFFFF" stroke="#D4AF37" stroke-width="6"/>
  <rect x="462" y="296" width="100" height="10" rx="5" fill="#F6E9B8"/>
  <rect x="462" y="320" width="84" height="10" rx="5" fill="#F6E9B8"/>
  <rect x="462" y="344" width="58" height="10" rx="5" fill="#F6E9B8"/>
  <rect x="688" y="252" width="112" height="28" rx="14" fill="#D4AF37"/>
  <rect x="700" y="218" width="92" height="40" rx="20" fill="#FFF1BD"/>
  <rect x="728" y="192" width="38" height="28" rx="14" fill="#D4AF37"/>
  <rect x="712" y="456" width="194" height="22" rx="11" fill="#D4AF37"/>
  <circle cx="742" cy="442" r="12" fill="#FFF7DE"/>
  <circle cx="812" cy="442" r="12" fill="#FFF7DE"/>
  <circle cx="882" cy="442" r="12" fill="#FFF7DE"/>
  <path d="M356 278C392 254 426 251 468 270" stroke="#FFF7DE" stroke-width="14" stroke-linecap="round"/>
  <path d="M878 260C915 234 954 230 1000 254" stroke="#FFF2D0" stroke-width="14" stroke-linecap="round"/>
  <rect x="320" y="584" width="560" height="24" rx="12" fill="#E8D39A"/>
  <rect x="410" y="612" width="380" height="18" rx="9" fill="#F4E9C0"/>
</svg>
